<svg xmlns="http://www.w3.org/2000/svg" width="192" height="192" viewBox="0 0 192 192">
  <defs>
    <linearGradient id="grad5a" x1="0%" y1="0%" x2="100%" y2="100%">
      <stop offset="0%" stop-color="#f97316" />
      <stop offset="100%" stop-color="#ea580c" />
    </linearGradient>
    <linearGradient id="grad5b" x1="0%" y1="0%" x2="100%" y2="100%">
      <stop offset="0%" stop-color="#14b8a6" />
      <stop offset="100%" stop-color="#0d9488" />
    </linearGradient>
  </defs>
  <rect width="192" height="192" rx="40" fill="#ffffff"/>
  
  <!-- Icon: Circular badge with house and network -->
  <g transform="translate(96, 96)">
    <!-- Outer Circle -->
    <circle cx="0" cy="0" r="70" fill="none" stroke="url(#grad5a)" stroke-width="4"/>
    
    <!-- House in Center -->
    <g transform="translate(0, -8)">
      <path d="M-22 -22 L22 -22 L0 -40 Z" fill="url(#grad5a)"/>
      <rect x="-22" y="-22" width="44" height="30" fill="#ffffff" rx="3"/>
      <rect x="-13" y="-15" width="8" height="8" fill="url(#grad5b)" rx="1.5"/>
      <rect x="5" y="-15" width="8" height="8" fill="url(#grad5b)" rx="1.5"/>
      <rect x="-6" y="-3" width="12" height="18" fill="url(#grad5a)" rx="1.5"/>
    </g>
    
    <!-- Network Nodes Around -->
    <circle cx="0" cy="-65" r="7" fill="url(#grad5b)"/>
    <circle cx="50" cy="-35" r="7" fill="url(#grad5b)"/>
    <circle cx="50" cy="35" r="7" fill="url(#grad5b)"/>
    <circle cx="0" cy="65" r="7" fill="url(#grad5b)"/>
    <circle cx="-50" cy="35" r="7" fill="url(#grad5b)"/>
    <circle cx="-50" cy="-35" r="7" fill="url(#grad5b)"/>
    
    <!-- Connection Lines -->
    <g stroke="url(#grad5b)" stroke-width="2" fill="none" opacity="0.4">
      <line x1="0" y1="-58" x2="0" y2="-30"/>
      <line x1="43" y1="-28" x2="30" y2="-15"/>
      <line x1="43" y1="28" x2="30" y2="15"/>
      <line x1="0" y1="58" x2="0" y2="30"/>
      <line x1="-43" y1="28" x2="-30" y2="15"/>
      <line x1="-43" y1="-28" x2="-30" y2="-15"/>
    </g>
  </g>
</svg>
