<svg xmlns="http://www.w3.org/2000/svg" viewBox="0 0 100 100" width="100" height="100">
  <defs>
    <linearGradient id="grad5a" x1="0%" y1="0%" x2="100%" y2="100%">
      <stop offset="0%" stop-color="#f97316" />
      <stop offset="100%" stop-color="#ea580c" />
    </linearGradient>
    <linearGradient id="grad5b" x1="0%" y1="0%" x2="100%" y2="100%">
      <stop offset="0%" stop-color="#14b8a6" />
      <stop offset="100%" stop-color="#0d9488" />
    </linearGradient>
  </defs>
  
  <!-- Simplified Circular badge for favicon -->
  <g transform="translate(50, 50)">
    <!-- Outer Circle -->
    <circle cx="0" cy="0" r="40" fill="none" stroke="url(#grad5a)" stroke-width="2.5"/>
    
    <!-- House in Center -->
    <g transform="translate(0, -3)">
      <path d="M-12 -12 L12 -12 L0 -22 Z" fill="url(#grad5a)"/>
      <rect x="-12" y="-12" width="24" height="16" fill="#ffffff" rx="1.5"/>
      <rect x="-7" y="-8" width="4" height="4" fill="url(#grad5b)" rx="0.5"/>
      <rect x="3" y="-8" width="4" height="4" fill="url(#grad5b)" rx="0.5"/>
      <rect x="-3" y="-1" width="6" height="10" fill="url(#grad5a)" rx="0.5"/>
    </g>
    
    <!-- Network Nodes (simplified) -->
    <circle cx="0" cy="-35" r="3" fill="url(#grad5b)"/>
    <circle cx="28" cy="-18" r="3" fill="url(#grad5b)"/>
    <circle cx="28" cy="18" r="3" fill="url(#grad5b)"/>
    <circle cx="0" cy="35" r="3" fill="url(#grad5b)"/>
    <circle cx="-28" cy="18" r="3" fill="url(#grad5b)"/>
    <circle cx="-28" cy="-18" r="3" fill="url(#grad5b)"/>
  </g>
</svg>
