<svg xmlns="http://www.w3.org/2000/svg" viewBox="0 0 200 200" width="200" height="200">
  <defs>
    <linearGradient id="grad5a" x1="0%" y1="0%" x2="100%" y2="100%">
      <stop offset="0%" stop-color="#f97316" />
      <stop offset="100%" stop-color="#ea580c" />
    </linearGradient>
    <linearGradient id="grad5b" x1="0%" y1="0%" x2="100%" y2="100%">
      <stop offset="0%" stop-color="#14b8a6" />
      <stop offset="100%" stop-color="#0d9488" />
    </linearGradient>
  </defs>
  
  <!-- Icon: Circular badge with house and network -->
  <g transform="translate(100, 100)">
    <!-- Outer Circle -->
    <circle cx="0" cy="0" r="50" fill="none" stroke="url(#grad5a)" stroke-width="3"/>
    
    <!-- House in Center -->
    <g transform="translate(0, -5)">
      <path d="M-15 -15 L15 -15 L0 -28 Z" fill="url(#grad5a)"/>
      <rect x="-15" y="-15" width="30" height="20" fill="#ffffff" rx="2"/>
      <rect x="-9" y="-10" width="5" height="5" fill="url(#grad5b)" rx="1"/>
      <rect x="4" y="-10" width="5" height="5" fill="url(#grad5b)" rx="1"/>
      <rect x="-4" y="-2" width="8" height="12" fill="url(#grad5a)" rx="1"/>
    </g>
    
    <!-- Network Nodes Around -->
    <circle cx="0" cy="-45" r="5" fill="url(#grad5b)"/>
    <circle cx="35" cy="-25" r="5" fill="url(#grad5b)"/>
    <circle cx="35" cy="25" r="5" fill="url(#grad5b)"/>
    <circle cx="0" cy="45" r="5" fill="url(#grad5b)"/>
    <circle cx="-35" cy="25" r="5" fill="url(#grad5b)"/>
    <circle cx="-35" cy="-25" r="5" fill="url(#grad5b)"/>
    
    <!-- Connection Lines -->
    <g stroke="url(#grad5b)" stroke-width="1.5" fill="none" opacity="0.4">
      <line x1="0" y1="-40" x2="0" y2="-20"/>
      <line x1="30" y1="-20" x2="20" y2="-10"/>
      <line x1="30" y1="20" x2="20" y2="10"/>
      <line x1="0" y1="40" x2="0" y2="20"/>
      <line x1="-30" y1="20" x2="-20" y2="10"/>
      <line x1="-30" y1="-20" x2="-20" y2="-10"/>
    </g>
  </g>
</svg>
