<svg xmlns="http://www.w3.org/2000/svg" viewBox="0 0 200 200" fill="none">
  <!-- Growth Arrow (background) -->
  <path d="M40 160 Q20 100, 60 60 L80 60 L80 40 L120 70 L80 100 L80 80 L70 80 Q40 110, 55 160 Z" fill="#16a34a"/>
  
  <!-- House/Storefront -->
  <rect x="70" y="90" width="70" height="60" fill="#92400e" rx="4"/>
  
  <!-- Roof -->
  <path d="M60 90 L105 60 L150 90 Z" fill="#f97316"/>
  
  <!-- Awning -->
  <rect x="75" y="88" width="60" height="12" fill="#fdba74" rx="2"/>
  <rect x="75" y="88" width="12" height="12" fill="white" opacity="0.6"/>
  <rect x="99" y="88" width="12" height="12" fill="white" opacity="0.6"/>
  <rect x="123" y="88" width="12" height="12" fill="white" opacity="0.6"/>
  
  <!-- Shopping Bag -->
  <rect x="95" y="110" width="20" height="22" fill="white" rx="2"/>
  <path d="M98 115 Q98 110, 102 110 Q106 110, 106 110 Q112 110, 112 115" stroke="#92400e" stroke-width="2" fill="none"/>
  <rect x="100" y="107" width="10" height="3" fill="white"/>
  
  <!-- WiFi Signal -->
  <path d="M95 55 Q105 50, 115 55" stroke="#16a34a" stroke-width="3" fill="none" stroke-linecap="round"/>
  <path d="M100 62 Q105 60, 110 62" stroke="#16a34a" stroke-width="3" fill="none" stroke-linecap="round"/>
  <circle cx="105" cy="68" r="2" fill="#16a34a"/>
  
  <!-- Sparkles -->
  <path d="M130 75 L132 80 L137 82 L132 84 L130 89 L128 84 L123 82 L128 80 Z" fill="#f97316"/>
  <path d="M145 85 L146 88 L149 89 L146 90 L145 93 L144 90 L141 89 L144 88 Z" fill="#fb923c"/>
  <path d="M138 95 L139 97 L141 98 L139 99 L138 101 L137 99 L135 98 L137 97 Z" fill="#fdba74"/>
  
  <!-- Potted Plant -->
  <rect x="50" y="135" width="18" height="15" fill="#92400e" rx="2"/>
  <circle cx="52" cy="135" r="1.5" fill="#78350f"/>
  <circle cx="66" cy="135" r="1.5" fill="#78350f"/>
  <path d="M54 135 Q56 125, 58 120 Q60 125, 62 130" fill="#16a34a"/>
  <path d="M60 132 Q58 122, 56 117" fill="#22c55e"/>
  
  <!-- Shipping Box -->
  <rect x="42" y="145" width="20" height="15" fill="#d97706" rx="2"/>
  <rect x="47" y="145" width="10" height="15" fill="#fbbf24"/>
  <line x1="42" y1="152" x2="62" y2="152" stroke="#92400e" stroke-width="1"/>
</svg>

